<?xml version="1.0" encoding="UTF-8" standalone="no"?>
<!DOCTYPE svg PUBLIC "-//W3C//DTD SVG 1.1//EN" "http://www.w3.org/Graphics/SVG/1.1/DTD/svg11.dtd">
<!-- Wygenerowane w programie Microsoft Visio, SVG Export lines.svg Page-1 -->
<svg xmlns="http://www.w3.org/2000/svg" xmlns:xlink="http://www.w3.org/1999/xlink" xmlns:ev="http://www.w3.org/2001/xml-events"
		xmlns:v="http://schemas.microsoft.com/visio/2003/SVGExtensions/" width="7.12459in" height="3.18758in"
		viewBox="0 0 512.97 229.506" xml:space="preserve" color-interpolation-filters="sRGB" class="st6">
	<v:documentProperties v:langID="1045" v:metric="true" v:viewMarkup="false">
		<v:userDefs>
			<v:ud v:nameU="msvNoAutoConnect" v:val="VT0(1):26"/>
		</v:userDefs>
	</v:documentProperties>

	<style type="text/css">
	<![CDATA[
		.st1 {fill:#f2f2f2;stroke:none;stroke-linecap:round;stroke-linejoin:round;stroke-width:0.75}
		.st2 {fill:#fee599;stroke:none;stroke-linecap:round;stroke-linejoin:round;stroke-width:0.75}
		.st3 {fill:#bfbfbf;stroke:none;stroke-linecap:round;stroke-linejoin:round;stroke-width:0.75}
		.st4 {fill:#d8d8d8;stroke:none;stroke-linecap:round;stroke-linejoin:round;stroke-width:0.75}
		.st5 {fill:#c4d6a0;stroke:none;stroke-linecap:round;stroke-linejoin:round;stroke-width:0.75}
		.st6 {fill:none;fill-rule:evenodd;font-size:12px;overflow:visible;stroke-linecap:square;stroke-miterlimit:3}
	]]>
	</style>

	<g v:mID="0" v:index="1" v:groupContext="foregroundPage">
		<title>Strona 1</title>
		<v:pageProperties v:drawingScale="0.0393701" v:pageScale="0.0393701" v:drawingUnits="24" v:shadowOffsetX="8.50394"
				v:shadowOffsetY="-8.50394"/>
		<g id="shape3-1" v:mID="3" v:groupContext="shape" transform="translate(34.0157,-63.7293)">
			<title>Arkusz.3</title>
			<rect x="0" y="218.167" width="215.433" height="11.3386" rx="5.66929" ry="5.66929" class="st1"/>
		</g>
		<g id="shape4-3" v:mID="4" v:groupContext="shape" transform="translate(260.787,-63.7293)">
			<title>Arkusz.4</title>
			<rect x="0" y="218.167" width="22.6772" height="11.3386" rx="5.66929" ry="5.66929" class="st2"/>
		</g>
		<g id="shape5-5" v:mID="5" v:groupContext="shape" transform="translate(294.803,-63.7293)">
			<title>Arkusz.5</title>
			<rect x="0" y="218.167" width="215.433" height="11.3386" rx="5.66929" ry="5.66929" class="st1"/>
		</g>
		<g id="shape6-7" v:mID="6" v:groupContext="shape" transform="translate(34.0157,-41.0522)">
			<title>Arkusz.6</title>
			<rect x="0" y="218.167" width="58.1102" height="11.3386" rx="5.66929" ry="5.66929" class="st1"/>
		</g>
		<g id="shape7-9" v:mID="7" v:groupContext="shape" transform="translate(102.047,-41.0522)">
			<title>Arkusz.7</title>
			<rect x="0" y="218.167" width="22.6772" height="11.3386" rx="5.66929" ry="5.66929" class="st2"/>
		</g>
		<g id="shape8-11" v:mID="8" v:groupContext="shape" transform="translate(136.063,-41.0522)">
			<title>Arkusz.8</title>
			<rect x="0" y="218.167" width="215.433" height="11.3386" rx="5.66929" ry="5.66929" class="st3"/>
		</g>
		<g id="shape9-13" v:mID="9" v:groupContext="shape" transform="translate(18.375,-86.4065)">
			<title>Arkusz.9</title>
			<rect x="0" y="218.167" width="128.976" height="11.3386" rx="5.66929" ry="5.66929" class="st4"/>
		</g>
		<g id="shape10-15" v:mID="10" v:groupContext="shape" transform="translate(168.611,-86.4065)">
			<title>Arkusz.10</title>
			<rect x="0" y="218.167" width="215.433" height="11.3386" rx="5.66929" ry="5.66929" class="st1"/>
		</g>
		<g id="shape11-17" v:mID="11" v:groupContext="shape" transform="translate(405.304,-86.4065)">
			<title>Arkusz.11</title>
			<rect x="0" y="218.167" width="22.6772" height="11.3386" rx="5.66929" ry="5.66929" class="st2"/>
		</g>
		<g id="shape21-19" v:mID="21" v:groupContext="shape" transform="translate(18.375,-109.084)">
			<title>Arkusz.21</title>
			<rect x="0" y="218.167" width="187.087" height="11.3386" rx="5.66929" ry="5.66929" class="st5"/>
		</g>
		<g id="shape22-21" v:mID="22" v:groupContext="shape" transform="translate(226.721,-109.084)">
			<title>Arkusz.22</title>
			<rect x="0" y="218.167" width="215.433" height="11.3386" rx="5.66929" ry="5.66929" class="st1"/>
		</g>
		<g id="shape23-23" v:mID="23" v:groupContext="shape" transform="translate(18.375,-131.761)">
			<title>Arkusz.23</title>
			<rect x="0" y="218.167" width="36.8504" height="11.3386" rx="5.66929" ry="5.66929" class="st1"/>
		</g>
		<g id="shape24-25" v:mID="24" v:groupContext="shape" transform="translate(76.4852,-131.761)">
			<title>Arkusz.24</title>
			<rect x="0" y="218.167" width="36.8504" height="11.3386" rx="5.66929" ry="5.66929" class="st2"/>
		</g>
		<g id="shape25-27" v:mID="25" v:groupContext="shape" transform="translate(134.595,-131.761)">
			<title>Arkusz.25</title>
			<rect x="0" y="218.167" width="215.433" height="11.3386" rx="5.66929" ry="5.66929" class="st1"/>
		</g>
		<g id="shape26-29" v:mID="26" v:groupContext="shape" transform="translate(18.375,-154.438)">
			<title>Arkusz.26</title>
			<rect x="0" y="218.167" width="128.976" height="11.3386" rx="5.66929" ry="5.66929" class="st4"/>
		</g>
		<g id="shape27-31" v:mID="27" v:groupContext="shape" transform="translate(18.375,-177.115)">
			<title>Arkusz.27</title>
			<rect x="0" y="218.167" width="36.8504" height="11.3386" rx="5.66929" ry="5.66929" class="st2"/>
		</g>
		<g id="shape28-33" v:mID="28" v:groupContext="shape" transform="translate(76.4852,-177.115)">
			<title>Arkusz.28</title>
			<rect x="0" y="218.167" width="128.976" height="11.3386" rx="5.66929" ry="5.66929" class="st1"/>
		</g>
		<g id="shape29-35" v:mID="29" v:groupContext="shape" transform="translate(168.611,-154.438)">
			<title>Arkusz.29</title>
			<rect x="0" y="218.167" width="58.1102" height="11.3386" rx="5.66929" ry="5.66929" class="st5"/>
		</g>
		<g id="shape30-37" v:mID="30" v:groupContext="shape" transform="translate(18.375,-199.792)">
			<title>Arkusz.30</title>
			<rect x="0" y="218.167" width="128.976" height="11.3386" rx="5.66929" ry="5.66929" class="st1"/>
		</g>
		<g id="shape31-39" v:mID="31" v:groupContext="shape" transform="translate(18.375,-362.835)">
			<title>Arkusz.31</title>
			<rect x="0" y="218.167" width="187.087" height="11.3386" rx="5.66929" ry="5.66929" class="st1"/>
		</g>
		<g id="shape33-41" v:mID="33" v:groupContext="shape" transform="translate(310.344,-18.375)">
			<title>Arkusz.33</title>
			<rect x="0" y="218.167" width="128.976" height="11.3386" rx="5.66929" ry="5.66929" class="st4"/>
		</g>
		<g id="shape34-43" v:mID="34" v:groupContext="shape" transform="translate(226.721,-18.375)">
			<title>Arkusz.34</title>
			<rect x="0" y="218.167" width="66.6142" height="11.3386" rx="5.66929" ry="5.66929" class="st2"/>
		</g>
	</g>
</svg>
